HIERARCHY
ROOT Hips
{
	OFFSET -0.179506 -22.333345 2.821913
	CHANNELS 6 Xposition Yposition Zposition Zrotation Yrotation Xrotation 
	JOINT LeftUpLeg
	{
		OFFSET 6.951974 -9.140623 -0.681533
		CHANNELS 3 Zrotation Yrotation Xrotation
		JOINT LeftLeg
		{
			OFFSET 3.427654 -37.519855 -0.449580
			CHANNELS 3 Zrotation Yrotation Xrotation
			JOINT LeftFoot
			{
				OFFSET -1.359570 -39.796059 -4.369333
				CHANNELS 3 Zrotation Yrotation Xrotation
				JOINT LeftToe
				{
					OFFSET 2.635814 -5.579078 11.928840
					CHANNELS 3 Zrotation Yrotation Xrotation
					End Site
					{
						OFFSET 0.000000 0.000000 0.000000
					}
				}
			}
		}
	}
	JOINT RightUpLeg
	{
		OFFSET -6.767048 -9.052170 -0.431982
		CHANNELS 3 Zrotation Yrotation Xrotation
		JOINT RightLeg
		{
			OFFSET -3.829005 -38.256897 -0.885003
			CHANNELS 3 Zrotation Yrotation Xrotation
			JOINT RightFoot
			{
				OFFSET 1.577377 -39.841461 -4.231180
				CHANNELS 3 Zrotation Yrotation Xrotation
				JOINT RightToe
				{
					OFFSET -2.537174 -4.814398 12.334795
					CHANNELS 3 Zrotation Yrotation Xrotation
					End Site
					{
						OFFSET 0.000000 0.000000 0.000000
					}
				}
			}
		}
	}
	JOINT Spine
	{
		OFFSET -0.253288 10.896323 -2.669631
		CHANNELS 3 Zrotation Yrotation Xrotation
		JOINT Spine1
		{
			OFFSET 0.548704 13.518043 0.109247
			CHANNELS 3 Zrotation Yrotation Xrotation
			JOINT Spine2
			{
				OFFSET 0.145701 5.292222 2.542457
				CHANNELS 3 Zrotation Yrotation Xrotation
				JOINT Neck
				{
					OFFSET -0.277840 21.387037 -4.285703
					CHANNELS 3 Zrotation Yrotation Xrotation
					JOINT Head
					{
						OFFSET 0.515184 6.496960 5.134897
						CHANNELS 3 Zrotation Yrotation Xrotation
						End Site
						{
							OFFSET 0.000000 0.000000 0.000000
						}
					}
				}
				JOINT LeftShoulder
				{
					OFFSET 7.884473 12.174932 -3.408961
					CHANNELS 3 Zrotation Yrotation Xrotation
					JOINT LeftArm
					{
						OFFSET 9.097692 3.046888 -0.886815
						CHANNELS 3 Zrotation Yrotation Xrotation
						JOINT LeftForeArm
						{
							OFFSET 25.961220 -1.277207 -2.745643
							CHANNELS 3 Zrotation Yrotation Xrotation
							JOINT LeftHand
							{
								OFFSET 24.923361 0.898606 -0.117091
								CHANNELS 3 Zrotation Yrotation Xrotation
								End Site
								{
									OFFSET 0.000000 0.000000 0.000000
								}
							}
						}
					}
				}
				JOINT RightShoulder
				{
					OFFSET -8.175920 11.883285 -3.861528
					CHANNELS 3 Zrotation Yrotation Xrotation
					JOINT RightArm
					{
						OFFSET -9.601238 3.255117 -0.914307
						CHANNELS 3 Zrotation Yrotation Xrotation
						JOINT RightForeArm
						{
							OFFSET -25.374195 -1.332924 -2.140099
							CHANNELS 3 Zrotation Yrotation Xrotation
							JOINT RightHand
							{
								OFFSET -25.529810 0.777228 -0.555919
								CHANNELS 3 Zrotation Yrotation Xrotation
								End Site
								{
									OFFSET 0.000000 0.000000 0.000000
								}
							}
						}
					}
				}
			}
		}
	}
}
MOTION
Frames: 9
Frame Time: 0.033333
2.019686 90.380333 95.170700 174.247214 0.106773 85.671589 -8.413429 -4.619768 -1.271145 -0.823068 -10.673393 11.715094 -1.299960 7.583115 -4.616086 nan nan nan -2.172395 0.085372 -11.683960 -3.447908 -4.127679 49.274035 5.143007 -1.612739 -7.148129 nan nan nan 0.110961 1.814344 10.895213 0.226385 0.194278 -1.061527 -0.345367 1.610147 2.137399 5.015065 0.944775 4.693636 6.661725 -6.536256 -0.653185 -14.596691 2.313092 -3.982553 -55.509728 -12.462026 6.586714 8.830599 -27.038754 -0.919053 -9.214843 -12.510895 -9.840546 14.893439 -2.029681 -0.598694 65.084215 2.619536 10.418044 -7.045252 26.910299 1.356530 6.976957 10.565999 -19.007290 
2.242448 91.082550 95.340492 174.866536 0.464058 85.487148 -8.038789 -4.301180 -0.086411 -0.567042 -11.467154 10.852134 -1.596470 7.505912 -4.719280 nan nan nan -1.706226 0.323855 -12.433647 -3.873559 -4.408873 48.056996 4.792382 -2.440870 -7.266552 nan nan nan -0.014930 1.476041 11.125941 0.492304 0.092796 -1.258682 0.049123 1.235514 2.320663 4.907446 0.929780 4.727459 6.804895 -6.457674 -0.536042 -14.347265 1.739884 -3.906498 -55.173852 -13.408468 6.496793 9.163091 -27.440101 -1.338794 -9.037846 -12.626078 -9.784713 14.813117 -2.137701 -0.588465 64.957233 2.115226 10.120779 -7.372351 27.121248 0.963980 6.876866 10.460814 -19.252350 
2.442437 91.796944 95.493538 175.388135 0.698445 85.395313 -7.867235 -3.891483 1.055148 -0.127913 -12.212850 9.866086 -1.803668 7.479810 -4.805994 nan nan nan -1.403577 0.543288 -13.237462 -4.301459 -4.662956 46.701878 4.505978 -3.090376 -7.279262 nan nan nan -0.079309 1.132404 11.113684 0.633296 0.004303 -1.188293 0.278394 0.944682 2.391163 4.831224 0.949408 4.782170 7.013183 -6.368301 -0.506829 -13.921501 1.250644 -3.898306 -54.946083 -14.366515 6.408619 9.444869 -27.780647 -1.778509 -9.055487 -12.698327 -10.019784 14.641290 -2.298519 -0.640041 65.026455 1.658888 9.902102 -7.667631 27.206120 0.694247 7.515092 10.459272 -19.472575 
2.642616 92.489937 95.622124 176.045260 0.955235 85.418184 -7.621900 -3.685263 1.971750 0.251300 -12.989079 9.053804 -2.053923 7.362498 -4.907265 nan nan nan -1.150986 0.738326 -14.095876 -4.642374 -5.085970 45.209102 4.413165 -3.616318 -7.122668 nan nan nan -0.112275 0.754733 11.172958 0.787619 -0.159909 -1.283955 0.454596 0.627879 2.414211 4.852797 0.953103 4.810176 7.198898 -6.301071 -0.409844 -13.534532 0.990773 -3.900509 -54.719102 -15.404128 6.205396 9.699484 -28.220664 -2.117144 -9.338722 -12.864180 -9.987674 14.462934 -2.501410 -0.659185 65.038626 1.212987 9.849007 -7.786375 27.244937 0.594960 7.942450 10.473684 -19.803382 
2.838325 93.148270 95.727730 176.812427 1.189188 85.555019 -7.344465 -3.668255 2.679287 0.515658 -13.595394 8.350671 -2.225516 7.269739 -5.065078 nan nan nan -0.970069 0.923208 -15.011951 -4.934692 -5.653706 43.591991 4.550604 -4.099265 -6.852827 nan nan nan -0.186995 0.350255 11.338995 0.967730 -0.375578 -1.559139 0.691085 0.191122 2.390527 4.756855 0.870730 4.877031 7.283737 -6.008571 -0.408585 -13.212540 0.852977 -3.717114 -54.401415 -16.451399 5.828356 9.910162 -28.781314 -2.373089 -9.671529 -12.972034 -9.753557 14.186039 -2.758719 -0.608460 65.288249 0.878702 9.809978 -8.158407 27.173432 -0.112591 7.769622 10.487903 -19.798384 
3.049342 93.819862 95.829422 177.476750 1.439177 85.635957 -7.035877 -3.649525 3.493489 0.774739 -14.191415 7.592630 -2.410047 7.327023 -5.211560 nan nan nan -0.774847 1.175183 -15.826945 -5.008613 -6.139644 41.840099 4.629693 -4.672665 -6.328776 nan nan nan -0.350707 -0.059521 11.424586 1.215606 -0.594541 -1.646339 1.013292 -0.235156 2.391356 4.674254 0.983111 4.829661 7.313263 -5.726824 -0.397651 -12.907540 0.605288 -3.567752 -54.054516 -17.233512 5.659699 10.228739 -29.447270 -2.770952 -9.878300 -13.082032 -10.030745 13.936773 -2.947180 -0.635995 65.079837 0.625334 10.090054 -8.083604 27.411333 0.700516 8.341888 9.974517 -20.003645 
3.263202 94.513550 95.911942 178.003914 1.673980 85.632783 -6.781627 -3.628349 4.414636 1.204809 -14.586653 6.826399 -2.468116 7.208691 -5.413299 nan nan nan -0.552832 1.458080 -16.509733 -5.135852 -6.589281 39.962510 4.849563 -5.086647 -5.640934 nan nan nan -0.500236 -0.414797 11.512482 1.442687 -0.799969 -1.663339 1.325617 -0.507753 2.441774 4.548310 1.026005 4.758109 7.383495 -5.517268 -0.403270 -12.442774 0.329337 -3.488803 -53.952921 -18.201085 5.513504 10.478681 -29.822521 -3.842984 -10.187959 -13.353546 -10.225483 13.608264 -3.120472 -0.568218 65.418522 0.285095 10.031356 -8.641892 27.597298 -0.683494 8.410919 9.981679 -20.078271 
3.472418 95.252632 95.963821 178.588380 1.901767 85.616547 -6.474914 -3.447505 5.364854 1.581244 -15.185267 6.021296 -2.570603 7.039748 -5.519696 nan nan nan -0.359192 1.613667 -17.051900 -5.162712 -7.065838 37.910247 5.373328 -5.567798 -5.161005 nan nan nan -0.669234 -0.782035 11.505777 1.704963 -0.998356 -1.544093 1.612205 -0.780250 2.441748 4.510330 1.059455 4.575681 7.420714 -5.384676 -0.262730 -12.073718 0.032285 -3.309197 -53.680634 -19.117648 5.530956 10.615993 -30.339059 -4.675395 -9.495812 -13.915263 -10.791875 13.366097 -3.210361 -0.555600 65.367831 -0.059363 10.209774 -8.776471 27.645076 -1.331778 8.228043 10.071568 -20.348246 
3.678520 95.978539 96.000114 179.210446 2.100787 85.705517 -6.052740 -3.210847 6.196914 1.730512 -15.888448 5.173125 -2.864672 6.820264 -5.566044 nan nan nan -0.259035 1.725147 -17.626496 -4.968315 -7.508200 35.756220 5.988324 -5.864455 -4.818828 nan nan nan -0.876848 -1.072864 11.426965 1.966403 -1.194172 -1.441473 1.891138 -1.127656 2.386551 4.550165 1.186126 4.376723 7.440358 -5.228962 -0.078442 -11.779350 -0.399803 -3.061931 -53.248328 -19.852310 5.628358 10.826521 -31.054288 -5.274292 -8.294777 -14.454743 -11.350897 13.273676 -3.347391 -0.595361 65.184212 -0.400360 10.297527 -8.722572 27.632409 -1.689938 7.519841 10.079932 -20.523411 
